<svg width="724" height="444" viewBox="0 0 724 444" fill="none" xmlns="http://www.w3.org/2000/svg">
<path fill-rule="evenodd" clip-rule="evenodd" d="M215.617 250.785C214.188 251.071 214 253.601 214 272.535V293.962H219.5H225V286.962V279.962H231.04C244.363 279.962 252.614 270.536 248.435 260.09C245.62 253.056 242.375 251.542 228.868 250.962C222.469 250.687 216.506 250.607 215.617 250.785Z" fill="#9003FF"/>
<path fill-rule="evenodd" clip-rule="evenodd" d="M302.306 250.771L299.112 251.08L306.029 261.576L312.947 272.073L309.234 277.767C307.192 280.899 304.054 285.595 302.261 288.202C300.467 290.809 299 293.171 299 293.452C299 293.732 301.813 293.95 305.25 293.934L311.5 293.907L315.494 287.934C317.691 284.65 319.773 281.962 320.121 281.962C320.469 281.962 322.497 284.643 324.627 287.919L328.5 293.875L334.857 293.919C339.715 293.952 341.095 293.652 340.709 292.646C340.431 291.921 337.458 287.404 334.102 282.608C327.849 273.671 326.929 270.805 329.426 268.041C330.21 267.172 333.113 263.087 335.877 258.962L340.902 251.462L335.701 250.946C332.841 250.662 329.967 250.586 329.315 250.778C328.664 250.969 326.452 253.564 324.399 256.544C322.347 259.524 320.405 261.957 320.084 261.95C319.763 261.944 317.821 259.519 315.768 256.562C311.835 250.896 309.848 250.041 302.306 250.771Z" fill="#9003FF"/>
<path fill-rule="evenodd" clip-rule="evenodd" d="M414.25 250.775L411 251.089V272.525V293.962H426H441V289.462V284.962H431.5H422V268.079C422 251.345 421.98 251.192 419.75 250.829C418.512 250.627 416.037 250.603 414.25 250.775Z" fill="#9003FF"/>
<path fill-rule="evenodd" clip-rule="evenodd" d="M462.134 250.751C461.336 251.017 461 257.472 461 272.545V293.962H466H471V285.462V276.962H480H489V285.514V294.067L494.25 293.764L499.5 293.462L499.77 272.212L500.04 250.962H494.56H489.081L488.79 259.212L488.5 267.462L479.75 267.751L471 268.04V259.501C471 253.405 470.642 250.925 469.75 250.833C466.003 250.446 463.139 250.416 462.134 250.751Z" fill="#9003FF"/>
<path fill-rule="evenodd" clip-rule="evenodd" d="M532.416 251.383C530.72 252.121 527.503 254.466 525.267 256.594C514.672 266.674 516.964 284.063 529.887 291.636C533.527 293.769 535.624 294.256 541.174 294.256C550.791 294.256 556.185 290.874 560.836 281.927C563.691 276.434 564.115 274.758 563.654 270.78C562.247 258.653 552.73 249.918 541.015 250.001C537.982 250.023 534.112 250.644 532.416 251.383Z" fill="#9003FF"/>
<path fill-rule="evenodd" clip-rule="evenodd" d="M592.5 251.385C585.495 254.525 582.682 260.619 584.869 267.919C586.212 272.402 590.847 275.056 601 277.157C606.891 278.376 607.5 278.734 607.5 280.982C607.5 283.23 607.057 283.49 602.759 283.766C598.803 284.02 597.604 283.657 595.52 281.573C593.048 279.101 592.975 279.092 588.261 280.664C585.643 281.537 583.315 282.409 583.089 282.601C582.26 283.306 586.278 289.519 588.771 291.387C592.574 294.236 605.7 294.852 611.063 292.434C620.373 288.236 621.793 276.087 613.568 271.004C611.869 269.954 607.19 268.347 603.171 267.433C595.868 265.772 593.594 263.968 595.899 261.663C597.85 259.712 605.081 260.429 606.902 262.754C608.45 264.73 608.639 264.742 612.917 263.128C615.347 262.212 617.513 260.928 617.73 260.275C618.375 258.337 610.617 251.335 607.031 250.618C601.898 249.592 595.781 249.914 592.5 251.385Z" fill="#9003FF"/>
<path fill-rule="evenodd" clip-rule="evenodd" d="M638.408 251.342C638.106 252.128 638.003 254.277 638.18 256.117C638.498 259.445 638.529 259.464 644.25 259.762L650 260.062V277.012V293.962H655H660V277.012V260.062L665.75 259.762L671.5 259.462V254.962V250.462L655.228 250.187C641.86 249.961 638.858 250.167 638.408 251.342Z" fill="#9003FF"/>
<path fill-rule="evenodd" clip-rule="evenodd" d="M269 272.462V293.962H274H279V272.462V250.962H274H269V272.462Z" fill="#9003FF"/>
<path fill-rule="evenodd" clip-rule="evenodd" d="M361 272.462V293.962H376.5H392V289.497V285.032L381.75 284.747L371.5 284.462L371.19 280.712L370.879 276.962H379.44H388V272.502V268.043L379.75 267.752L371.5 267.462L371.19 263.712L370.879 259.962H381.44H392V255.462V250.962H376.5H361V272.462Z" fill="#9003FF"/>
<path fill-rule="evenodd" clip-rule="evenodd" d="M225 264.962V269.962H231.021C236.474 269.962 237.151 269.726 238.182 267.462C239.034 265.592 239.034 264.332 238.182 262.462C237.151 260.198 236.474 259.962 231.021 259.962H225V264.962Z" fill="white"/>
<path fill-rule="evenodd" clip-rule="evenodd" d="M538.421 260.671C537.278 260.883 534.915 262.36 533.171 263.953C530.366 266.515 530.002 267.462 530.015 272.156C530.032 278.06 530.273 278.589 534.385 281.746C540.267 286.264 549.671 283.197 551.866 276.046C554.515 267.416 547.195 259.044 538.421 260.671Z" fill="white"/>
<path fill-rule="evenodd" clip-rule="evenodd" d="M28.164 187.875C15.565 191.924 6.047 201.437 1.655 214.374C0.233999 218.56 0 224.426 0 255.874C0 276.018 0.0360007 293.123 0.0820007 293.885C0.128001 294.671 1.122 294.022 2.379 292.385C7.751 285.387 15.514 280.004 24.528 277.028C30.257 275.136 32.737 274.855 39.528 275.327C44.003 275.639 48.857 276.187 50.316 276.545C52.481 277.076 53.097 276.787 53.675 274.967C54.785 271.468 67.092 259.71 73.164 256.347C87.882 248.194 103.811 246.282 118.164 250.946C125.208 253.234 133.772 257.558 136.67 260.289C137.377 260.955 139.363 262.625 141.083 264C142.804 265.375 145.981 269.017 148.143 272.094L152.073 277.689L157.119 276.141L162.164 274.592V230.296V186L97.914 186.054C39.316 186.103 33.18 186.263 28.164 187.875Z" fill="#9003FF"/>
<path fill-rule="evenodd" clip-rule="evenodd" d="M93.076 261.954C80.97 264.154 67.178 274.855 61.842 286.188C60.369 289.317 59.164 292.354 59.164 292.938C59.164 294.406 57.507 294.266 54.879 292.575C49.913 289.379 39.799 286.792 34.843 287.449C24.132 288.869 15.227 294.933 9.46899 304.729C6.92699 309.052 6.664 310.392 6.664 319C6.664 327.924 6.864 328.846 9.957 334.198C13.528 340.374 17.277 343.997 23.258 347.048C26.901 348.906 29.463 349 76.73 349C118.562 349 127.327 348.753 132.422 347.433C143.452 344.575 153.247 336.549 158.841 325.786C161.446 320.774 161.609 319.65 161.982 304.104L162.376 287.708L159.178 288.347C157.42 288.699 153.71 290.127 150.934 291.522C148.158 292.916 145.837 293.931 145.776 293.778C145.714 293.625 144.121 290.449 142.235 286.719C136.919 276.209 127.364 267.445 117.164 263.722C111.693 261.726 99.327 260.818 93.076 261.954Z" fill="#9003FF"/>
</svg>
