<svg width="447" height="398" viewBox="0 0 447 398" fill="none" xmlns="http://www.w3.org/2000/svg">
<g clip-path="url(#clip0_0_1)">
<path d="M169.736 179.023C180.05 185.813 182.654 191.301 180.382 201.992C188.297 205.71 191.317 212.394 191.071 220.958C191.044 221.911 191.733 223.291 192.523 223.801C212.001 236.359 213.333 263.682 197.245 280.597C207.474 290.636 214.115 302.432 215.008 317.925C214.67 323.222 214.309 327.626 213.498 332.025C197.025 330.349 187.712 341.892 189.615 352.376C191.191 361.06 189.285 367.268 185.489 374.144C181.2 381.911 181.862 390.528 182 399C157.312 399 132.625 399 107.486 398.645C109.378 396.565 111.761 394.889 114.047 393.09C115.124 392.243 116.427 391.331 116.918 390.153C119.398 384.197 121.518 378.091 124.034 372.152C125.031 369.797 124.885 368.585 122.788 366.737C110.067 355.524 102.224 341.791 101.933 324.377C101.907 322.789 101.849 320.73 100.913 319.703C92.886 310.896 90.276 300.433 90.92 288.869C92.0158 285.71 92.6622 282.289 94.311 279.451C96.8904 275.011 100.148 270.964 103.559 266.39C108.482 264.035 113.502 262.541 111.046 255.648C110.492 254.093 111.048 252.038 111.415 250.28C112.817 243.566 114.351 236.878 116.143 229.998C120.73 223.789 126.119 219.171 133.51 216.745C135.204 215.662 137.099 214.737 137.783 213.253C139.478 209.576 140.619 205.644 142.337 201.814C147.57 198.549 149.234 188.962 146.547 183.782C145.463 181.69 145.408 178.283 146.329 176.079C149.173 169.272 151.138 162.815 146.056 156.171C145.221 155.079 145.171 153.386 145.232 151.939C149.434 151.867 153.164 151.827 156.97 152.231C157.43 156.259 157.312 159.996 158.35 163.378C159.185 166.096 161.42 168.384 163.228 171.147C165.526 173.961 167.631 176.492 169.736 179.023Z" fill="#AFAFAD"/>
<path d="M182.469 399C181.862 390.528 181.2 381.911 185.489 374.144C189.285 367.268 191.191 361.06 189.615 352.376C187.712 341.892 197.025 330.349 213.728 332.287C221.914 335.061 226.595 340.175 228.838 347.752C229.21 349.005 230.526 350.597 231.699 350.901C245.171 354.393 254.738 362.507 259.954 375.279C261.715 379.589 263.69 379.069 267.071 377.916C277.721 374.285 288.469 370.939 299.177 367.479C301.791 366.634 304.401 365.777 307.013 364.925C316.183 364.297 325.383 362.862 334.519 363.197C358.487 364.073 381.75 368.283 403.714 378.801C415.144 384.275 426.039 390.336 435.93 398.659C351.646 399 267.292 399 182.469 399Z" fill="#C5C5C5"/>
<path d="M90.5907 289.021C90.2759 300.433 92.886 310.896 100.913 319.703C101.849 320.73 101.907 322.789 101.933 324.377C102.224 341.791 110.067 355.524 122.788 366.737C124.885 368.585 125.031 369.797 124.034 372.152C121.518 378.091 119.398 384.197 116.918 390.153C116.427 391.331 115.124 392.243 114.047 393.09C111.761 394.889 109.378 396.565 107.017 398.645C87.9791 399 68.9582 399 49.4687 399C55.1981 396.678 54.7765 391.666 55.275 386.171C55.9656 378.558 60.7108 372.737 67.5125 368.875C72.3588 366.124 74.085 358.076 70.8192 353.352C59.6745 337.234 59.9966 320.651 70.2839 304.659C74.8567 297.551 81.8111 292.027 90.5907 289.021Z" fill="#898989"/>
<path d="M306.9 364.603C304.401 365.777 301.791 366.634 299.177 367.479C288.469 370.939 277.721 374.285 267.071 377.916C263.69 379.069 261.715 379.589 259.954 375.279C254.738 362.507 245.171 354.393 231.699 350.901C230.526 350.597 229.21 349.005 228.838 347.752C226.595 340.175 221.914 335.061 214.178 332.292C214.309 327.626 214.67 323.222 215.048 318.351C220.084 317.256 225.092 316.199 230.123 316.078C246.968 315.673 263.641 328.052 268.748 343.191C270.446 348.223 272.76 349.032 277.462 349.155C289.508 349.469 299.355 354.695 306.9 364.603Z" fill="#89898A"/>
<path d="M162.127 125.042C160.615 126.974 159.103 128.905 156.934 130.956C155.582 131.033 154.887 130.99 154.13 130.486C154.051 103.093 154.175 76.1589 153.872 49.2299C153.824 44.9543 151.854 40.7004 150.772 36.4365C149.849 36.4739 148.926 36.5113 148.003 36.5487C147 41.6037 145.193 46.6486 145.128 51.7156C144.793 78.1427 144.9 104.575 144.491 131.006C143.4 131.018 142.672 131.03 141.639 130.901C138.468 127.366 133.909 125.233 133.971 119.731C134.129 105.498 134.091 91.264 134.391 76.7035C134.552 68.2518 134.454 60.1271 134.292 51.628C134.27 50.499 134.312 49.7442 134.552 48.7091C134.516 46.9455 134.282 45.4622 133.966 43.6432C133.849 42.8479 133.813 42.3884 133.778 41.9289C133.904 39.7691 134.017 37.6082 134.161 35.4495C134.52 30.0912 134.893 24.7339 135.819 19.4335C138.883 18.517 141.409 17.5926 143.89 16.5598C150.512 13.8029 154.95 14.5693 158.572 20.366C160.282 23.1016 160.913 26.9112 160.932 30.2404C161.101 59.9674 161.005 89.6958 161.068 119.424C161.072 121.297 161.758 123.169 162.127 125.042Z" fill="#9003FF"/>
<path d="M112.945 130.038C112.028 129.059 111.111 128.079 109.687 126.558C104.449 130.185 98.4435 134.344 92.4375 138.503C92.0245 138.348 91.6115 138.193 91.1984 138.039C92.7648 134.232 93.9212 130.179 96.0185 126.692C97.9285 123.516 100.471 120.435 103.42 118.228C109.952 113.343 111.523 107.198 111.181 99.3074C110.56 85.0248 110.95 70.6958 111.031 56.3868C111.056 52.0544 111.681 47.8439 115.667 45.0152C116.239 44.6095 116.444 43.6576 116.767 42.9354C118.641 38.7503 120.499 34.5583 122.865 30.5326C124.684 38.9178 126 47.1391 127.387 55.7972C128.322 55.8856 130.099 56.0534 131.87 56.6757C131.528 81.0655 131.192 105.001 130.549 129.019C129.22 129.334 128.197 129.566 126.979 129.635C126.15 129.566 125.517 129.661 124.489 129.737C121.695 129.734 119.295 129.752 116.499 129.771C115.05 129.862 113.997 129.95 112.945 130.038ZM126.042 108.222C126.339 108.957 126.636 109.693 126.934 110.429C127.189 110.363 127.445 110.298 127.7 110.233C127.7 103.54 127.7 96.847 127.7 90.1541C127.623 90.1533 127.545 90.1524 127.467 90.1516C127.013 95.8992 126.559 101.647 126.042 108.222Z" fill="#F2F2F2"/>
<path d="M115.836 230.18C114.351 236.878 112.817 243.566 111.415 250.28C111.048 252.038 110.492 254.093 111.046 255.648C113.502 262.541 108.482 264.035 103.649 266.046C103.919 259.726 104.467 253.379 105.182 247.052C106.064 239.241 107.104 231.448 108.035 223.642C108.424 220.38 108.708 217.106 109.35 213.081C110.112 205.901 110.879 199.481 110.955 193.053C111.145 176.948 111.05 160.84 110.99 144.733C110.983 142.801 110.481 140.871 110.209 138.941C110.171 138.568 110.133 138.195 110.534 137.482C112.283 137.148 113.593 137.155 114.922 137.535C114.952 138.915 114.961 139.921 114.96 141.4C114.998 169.692 115.035 197.512 115.127 225.331C115.133 226.948 115.589 228.564 115.836 230.18Z" fill="#DC833C"/>
<path d="M162.478 124.872C161.758 123.169 161.072 121.297 161.068 119.424C161.005 89.6958 161.101 59.9674 160.932 30.2404C160.913 26.9112 160.282 23.1016 158.572 20.366C154.95 14.5693 150.512 13.8029 143.89 16.5598C141.409 17.5926 138.883 18.517 136.162 19.2224C138.973 12.324 146.13 8.59058 152.894 10.1141C159.307 11.5588 164.943 18.1165 164.953 24.4982C164.995 54.4452 165.029 84.3928 164.861 114.339C164.841 117.797 163.538 121.248 162.478 124.872Z" fill="#3E0455" fill-opacity="0.99"/>
<path d="M131.875 56.2212C130.099 56.0534 128.322 55.8856 127.387 55.7972C126 47.1391 124.684 38.9178 123.178 30.3794C124.653 28.925 126.317 27.7878 127.982 26.6505C128.978 28.5474 130.269 30.3515 130.901 32.3628C131.859 35.4093 132.358 38.6 133.415 41.8292C133.813 42.3884 133.849 42.8479 133.859 43.9038C133.805 44.686 133.776 44.8716 133.521 45.3748C132.821 49.202 132.348 52.7116 131.875 56.2212Z" fill="black"/>
<path d="M169.822 178.602C167.631 176.492 165.526 173.961 163.154 170.748C162.585 162.409 162.285 154.752 162.303 147.064C163.795 147.026 164.968 147.02 166.14 147.015C166.743 150.796 167.479 154.561 167.918 158.361C168.678 164.957 169.254 171.573 169.822 178.602Z" fill="#D68243"/>
<path d="M110.128 139.41C110.481 140.871 110.983 142.801 110.99 144.733C111.05 160.84 111.145 176.948 110.955 193.053C110.879 199.481 110.112 205.901 109.417 212.655C109.465 188.616 109.756 164.248 110.128 139.41Z" fill="#B6875B"/>
<path d="M154.192 130.947C154.887 130.99 155.582 131.033 156.623 131.093C156.966 131.512 156.964 131.912 156.992 133.029C157.662 138.077 158.301 142.409 158.582 146.838C157.486 147.04 156.749 147.145 155.881 146.878C155.231 141.319 154.711 136.133 154.192 130.947Z" fill="#A6A2A0"/>
<path d="M158.941 146.742C158.301 142.409 157.662 138.077 157.035 133.327C160.041 137.366 163.034 141.822 166.084 146.646C164.968 147.02 163.795 147.026 161.924 147.011C160.464 146.908 159.702 146.825 158.941 146.742Z" fill="#8F8D89"/>
<path d="M114.902 137.161C113.593 137.155 112.283 137.148 110.584 137.204C111.043 135.083 111.891 132.9 112.842 130.378C113.997 129.95 115.05 129.862 116.556 130.148C116.673 132.686 116.337 134.851 115.724 137.036C115.266 137.092 115.084 137.127 114.902 137.161Z" fill="#A3A09F"/>
<path d="M116.143 229.998C115.589 228.564 115.133 226.948 115.127 225.331C115.035 197.512 114.998 169.692 115.291 141.411C116.066 140.882 116.499 140.814 117.349 140.814C118.893 140.829 120.018 140.775 121.564 140.824C124.334 140.99 126.685 141.054 129.138 141.313C129.426 141.748 129.655 141.934 129.936 142.532C130.306 154.919 130.519 166.849 131.077 178.763C131.44 186.508 132.425 194.223 132.904 201.965C133.207 206.847 133.089 211.754 133.16 216.65C126.119 219.171 120.73 223.789 116.143 229.998Z" fill="#FDE333"/>
<path d="M154.13 130.486C154.711 136.133 155.231 141.319 155.893 147.206C156.321 149.201 156.607 150.494 156.893 151.787C153.164 151.827 149.434 151.867 144.932 151.888C143.569 151.305 142.978 150.742 142.523 149.811C142.758 148.669 142.856 147.894 143.227 146.834C143.951 141.368 144.402 136.187 144.854 131.006C144.9 104.575 144.793 78.1427 145.128 51.7155C145.193 46.6486 147 41.6037 148.003 36.5487C148.926 36.5113 149.849 36.4739 150.772 36.4364C151.854 40.7004 153.824 44.9543 153.872 49.2299C154.175 76.1589 154.051 103.093 154.13 130.486Z" fill="#EDE4DE"/>
<path d="M142.954 147.119C142.856 147.894 142.758 148.669 142.356 150.105C141.708 152.867 141.037 154.973 141.068 157.068C141.292 171.985 141.66 186.899 141.982 201.815C140.619 205.644 139.478 209.576 137.783 213.253C137.099 214.737 135.204 215.662 133.51 216.745C133.089 211.754 133.207 206.847 132.904 201.965C132.425 194.223 131.44 186.508 131.077 178.763C130.519 166.849 130.306 154.919 129.978 142.487C130.01 141.979 130.091 141.888 130.409 141.959C131.852 142.705 132.976 143.38 134.091 144.458C136.15 149.105 140.081 146.034 142.954 147.119Z" fill="#EDB538"/>
<path d="M142.337 201.814C141.66 186.899 141.292 171.985 141.068 157.068C141.037 154.973 141.708 152.867 142.22 150.472C142.978 150.742 143.569 151.305 144.459 151.92C145.171 153.386 145.221 155.079 146.056 156.171C151.138 162.815 149.173 169.272 146.329 176.079C145.408 178.283 145.463 181.69 146.547 183.782C149.234 188.962 147.569 198.549 142.337 201.814Z" fill="#F7E044"/>
<path d="M156.97 152.231C156.607 150.494 156.321 149.201 156.024 147.58C156.749 147.145 157.486 147.04 158.582 146.838C159.702 146.825 160.464 146.908 161.605 147.044C162.285 154.752 162.585 162.409 162.96 170.465C161.42 168.384 159.185 166.096 158.35 163.378C157.312 159.996 157.43 156.259 156.97 152.231Z" fill="#E6AE54"/>
<path d="M131.87 56.6758C132.348 52.7116 132.821 49.202 133.648 45.7544C134.119 46.8741 134.236 47.9318 134.354 48.9895C134.312 49.7442 134.27 50.4989 134.18 52.0866C134.131 60.9565 134.131 68.9935 134.131 77.0306C134.091 91.264 134.129 105.498 133.971 119.731C133.909 125.233 138.468 127.366 141.647 131.261C139.974 134.463 137.987 137.164 135.899 139.584C135.238 138.537 134.68 137.77 134.065 136.629C132.957 133.815 131.906 131.376 130.855 128.936C131.192 105.001 131.528 81.0655 131.87 56.6758Z" fill="black"/>
<path d="M136.001 139.864C137.987 137.164 139.974 134.463 141.952 131.403C142.672 131.03 143.4 131.018 144.491 131.006C144.402 136.187 143.951 141.368 143.227 146.834C140.081 146.034 136.15 149.105 134.385 144.276C135.126 142.417 135.564 141.141 136.001 139.864Z" fill="#A6A199"/>
<path d="M134.391 76.7035C134.131 68.9935 134.131 60.9565 134.243 52.4609C134.454 60.1271 134.552 68.2518 134.391 76.7035Z" fill="#BA9672"/>
<path d="M134.552 48.7091C134.236 47.9318 134.119 46.8741 133.875 45.4368C133.776 44.8716 133.805 44.686 133.94 44.2396C134.282 45.4622 134.516 46.9455 134.552 48.7091Z" fill="#BA9672"/>
<path d="M121.144 140.721C120.018 140.775 118.893 140.829 117.373 140.493C116.653 139.074 116.327 138.044 116.001 137.015C116.337 134.851 116.673 132.686 116.952 130.145C119.295 129.752 121.695 129.734 124.511 130.191C124.604 133.76 124.282 136.855 123.652 139.969C122.611 140.232 121.877 140.476 121.144 140.721Z" fill="#969691"/>
<path d="M130.549 129.019C131.906 131.376 132.957 133.815 133.639 136.635C131.855 137.029 130.44 137.043 128.759 136.849C128.053 134.36 127.614 132.079 127.174 129.798C128.197 129.566 129.22 129.334 130.549 129.019Z" fill="#A3A09F"/>
<path d="M126.979 129.635C127.614 132.079 128.053 134.36 128.748 137.162C128.983 138.102 128.962 138.521 128.613 139.108C126.843 139.501 125.401 139.725 123.959 139.95C124.282 136.855 124.604 133.76 124.905 130.21C125.517 129.661 126.15 129.566 126.979 129.635Z" fill="#85857B"/>
<path d="M126.073 107.808C126.559 101.647 127.013 95.8992 127.467 90.1516C127.545 90.1524 127.623 90.1533 127.7 90.1541C127.7 96.847 127.7 103.54 127.7 110.233C127.445 110.298 127.189 110.363 126.934 110.429C126.636 109.693 126.339 108.957 126.073 107.808Z" fill="#F0F0F0" fill-opacity="0.941176"/>
<path d="M115.724 137.036C116.327 138.044 116.653 139.074 116.955 140.424C116.499 140.814 116.066 140.882 115.302 140.938C114.961 139.921 114.952 138.915 114.922 137.535C115.084 137.127 115.266 137.092 115.724 137.036Z" fill="#B6875B"/>
<path d="M123.652 139.969C125.401 139.725 126.843 139.501 128.639 139.424C128.988 139.992 128.982 140.412 128.976 140.907C128.976 140.981 129.036 141.117 129.036 141.117C126.685 141.054 124.334 140.99 121.564 140.824C121.877 140.476 122.611 140.232 123.652 139.969Z" fill="#B6875B"/>
<path d="M129.968 142.023C129.655 141.934 129.426 141.748 129.138 141.313C129.036 141.117 128.976 140.981 129.194 141.049C129.639 141.374 129.865 141.631 130.091 141.888C130.091 141.888 130.01 141.979 129.968 142.023Z" fill="#EDB538"/>
<path d="M130.409 141.959C129.865 141.631 129.639 141.374 129.195 140.975C128.982 140.412 128.988 139.992 128.968 139.256C128.962 138.521 128.983 138.102 129.015 137.37C130.44 137.043 131.855 137.029 133.696 137.009C134.68 137.77 135.238 138.537 135.899 139.584C135.564 141.141 135.126 142.417 134.394 143.874C132.976 143.38 131.852 142.705 130.409 141.959Z" fill="#D28744"/>
</g>
<defs>
<clipPath id="clip0_0_1">
<rect width="447" height="398" fill="white"/>
</clipPath>
</defs>
</svg>
