<svg width="170" height="148" viewBox="0 0 170 148" fill="none" xmlns="http://www.w3.org/2000/svg">
<g clip-path="url(#clip0_0_1)">
<path fill-rule="evenodd" clip-rule="evenodd" d="M4.48574 63.1871L7.66328 110.582C8.0916 115.481 8.97149 118.63 10.2133 120.364C11.1961 121.735 12.5375 122.127 14.1479 121.771C14.2773 121.743 14.4035 121.731 14.5297 121.731L29.8961 121.723L30.1252 121.735C32.2801 121.779 33.7709 121.008 34.7072 119.557C35.7996 117.867 36.3309 115.202 36.4139 111.761L36.4072 59.5109C36.3508 59.2791 36.3209 59.0353 36.3209 58.7836C36.3209 58.7157 36.3209 58.6478 36.3275 58.5798C36.0885 56.9135 35.4842 55.7907 34.5877 55.0914C33.3492 54.1284 31.4898 53.7568 29.2154 53.7887H29.1889V53.8007L9.68535 53.7967C7.67656 53.9126 6.13594 54.492 5.27266 55.7387C4.34961 57.0734 4.01758 59.379 4.46582 62.9513L4.48574 63.1871ZM128.802 61.1732C128.802 60.334 128.845 59.5388 128.931 58.7876L121.703 52.9776C120.663 52.1424 119.525 51.1834 118.382 50.2204C116.433 48.5781 114.461 46.9158 112.436 45.4613C113.146 43.9828 113.771 42.4324 114.298 40.8261C116.546 42.4124 118.698 44.2306 120.82 46.0207C121.879 46.9118 122.931 47.7989 124.07 48.714L130.495 53.8607C130.82 53.3172 131.196 52.8217 131.614 52.3662C133.45 50.3762 136.08 49.4052 139.453 49.4012V49.3893L157.748 49.3973C161.573 49.3813 164.691 50.2204 166.846 52.2184C169.243 54.4441 170.372 57.8286 169.89 62.6836L165.846 112.988C165.551 117.475 164.565 121 162.808 123.429C160.939 126.015 158.336 127.289 154.926 127.117L138.474 127.121C136.169 127.265 134.217 126.514 132.58 124.944C131.385 123.793 130.395 122.218 129.602 120.256H123.911C124.678 122.954 124.638 125.515 124.027 127.785C123.396 130.126 122.171 132.116 120.607 133.611C119.076 135.073 117.207 136.072 115.255 136.456C113.346 136.831 111.35 136.628 109.494 135.701C107.332 138.414 105.061 140.128 102.691 140.911C100.31 141.698 97.8994 141.539 95.459 140.512C93.1447 143.596 90.5848 145.534 87.7625 146.27C84.8904 147.021 81.8391 146.501 78.6018 144.667C77.5957 145.618 76.5398 146.37 75.4375 146.917C73.877 147.692 72.2367 148.052 70.5268 147.992C66.4262 147.848 63.6637 146.386 61.4656 144.02C59.3705 141.766 57.9561 138.869 56.369 135.537L47.3012 116.5H40.2688C39.8604 118.962 39.1465 121.044 38.0807 122.694C36.2877 125.479 33.6547 126.954 30.0156 126.866L14.6725 126.87C11.6344 127.465 9.02793 126.566 6.98926 123.721C5.18301 121.203 3.94785 117.124 3.41992 111.122L3.4 110.902L0.229104 63.6346C-0.401756 58.5319 0.29551 54.9236 1.99883 52.4581C3.71875 49.9727 6.3086 48.8498 9.50274 48.67L9.76504 48.65H29.1889V48.662C32.2535 48.622 34.8898 49.2294 36.892 50.7878C38.5023 52.0425 39.6578 53.8087 40.2522 56.2103H53.4703C56.7906 53.513 59.9018 51.3952 63.3416 50.1045C63.8529 49.9127 64.3676 49.7409 64.8922 49.5891C65.5928 50.656 66.3432 51.6709 67.14 52.6299C67.5451 53.1194 67.9625 53.5938 68.3918 54.0525C67.067 54.2363 65.8152 54.5599 64.61 55.0115C61.5055 56.1743 58.6102 58.2042 55.4426 60.8055C55.0773 61.1532 54.6158 61.357 54.1178 61.357H40.6838V111.354H48.5363C49.3664 111.354 50.0869 111.921 50.4422 112.752L60.0811 132.983C61.4922 135.948 62.7373 138.51 64.3078 140.2C65.7754 141.778 67.6945 142.757 70.643 142.865C71.752 142.901 72.8111 142.669 73.8205 142.17C74.4381 141.862 75.0457 141.447 75.64 140.927L69.3613 126.786C69.2295 126.489 69.1476 126.163 69.1203 125.828C69.093 125.493 69.1209 125.155 69.2023 124.833C69.2837 124.511 69.4171 124.211 69.5948 123.951C69.7725 123.691 69.991 123.476 70.2379 123.317C70.4846 123.159 70.755 123.06 71.0334 123.027C71.3119 122.994 71.593 123.028 71.8607 123.126C72.1283 123.224 72.3774 123.384 72.5934 123.598C72.8095 123.812 72.9884 124.075 73.1199 124.372L79.9465 139.744C82.4865 141.299 84.7908 141.782 86.8627 141.243C88.7553 140.751 90.5416 139.381 92.2184 137.171L82.3836 118.59C82.2336 118.306 82.1315 117.99 82.0831 117.658C82.0348 117.327 82.0412 116.987 82.1019 116.659C82.1627 116.331 82.2766 116.02 82.4371 115.744C82.5977 115.469 82.8018 115.234 83.0377 115.054C83.2732 114.873 83.5362 114.749 83.8115 114.69C84.0868 114.631 84.369 114.639 84.642 114.711C84.915 114.784 85.1733 114.921 85.4023 115.114C85.6312 115.307 85.8262 115.553 85.9762 115.837L96.3422 135.425C98.1617 136.312 99.9082 136.512 101.572 135.964C103.159 135.437 104.749 134.214 106.336 132.232L96.9432 110.954C96.392 109.699 96.7871 108.141 97.8297 107.478C98.3303 107.157 98.9162 107.089 99.4586 107.288C100.001 107.488 100.455 107.938 100.722 108.54L110.437 130.554C111.699 131.437 113.163 131.665 114.571 131.389C115.799 131.145 116.981 130.514 117.947 129.587C118.884 128.696 119.608 127.537 119.966 126.214C120.355 124.764 120.315 123.058 119.644 121.207C119.509 120.834 119.45 120.427 119.471 120.021C119.175 119.865 118.912 119.632 118.702 119.337C118.492 119.042 118.339 118.694 118.256 118.318L96.9299 72.026C94.5625 67.2549 92.4242 67.131 90.359 68.6135C88.8947 69.6644 87.3541 71.3587 85.8102 73.053C84.8771 74.0839 83.9375 75.1148 83.1606 75.886L79.3754 79.6382C76.7391 82.1636 73.7707 83.5142 70.9551 83.7979C69.0824 83.9817 67.2596 83.694 65.6227 82.9548C63.9293 82.1916 62.4451 80.9528 61.3195 79.2666C60.1043 77.4564 59.3107 75.1548 59.1215 72.4216C59.0684 71.6344 59.3141 70.9072 59.7391 70.3917L70.0221 55.6668C71.1543 56.7097 72.3563 57.6568 73.6113 58.4879L63.4943 72.981C63.6936 74.2038 64.0953 75.2307 64.6432 76.0499C65.2773 77.0009 66.1307 77.7082 67.1102 78.1477C68.1461 78.6192 69.3414 78.7951 70.6064 78.6712C72.6252 78.4714 74.7768 77.4764 76.7158 75.6263L80.4379 71.9261C81.3775 70.9911 82.1578 70.1319 82.9381 69.2728C84.6547 67.3868 86.3713 65.5007 88.1709 64.21C92.3412 61.2171 96.4916 61.1172 100.596 69.4047L121.643 115.086H128.795L128.802 61.1732ZM87.5002 0C100.413 0 110.875 12.5991 110.875 28.1311C110.875 43.6711 100.406 56.2582 87.5002 56.2582C74.5842 56.2582 64.1252 43.6631 64.1252 28.1311C64.1252 12.5871 74.5908 0 87.5002 0ZM80.9791 25.5178C81.7893 26.0772 82.4566 26.5927 83.0809 27.1761C83.5586 27.6215 84.0101 28.1062 84.4322 28.6266C85.5512 26.6566 87.6895 23.4159 89.7945 20.7107C91.551 18.457 93.3107 16.551 94.4994 15.9956L94.6023 15.9476H100.841L99.9945 17.0785C96.734 21.438 94.1607 25.0543 91.8498 28.8743C89.5389 32.6984 87.4736 36.7502 85.2158 41.9889L84.6912 43.2036L84.2098 41.9649C83.0443 38.964 81.942 36.4266 80.5574 34.1769C79.1828 31.9392 77.5193 29.9652 75.2184 28.0672L74.1559 27.1921L80.7899 25.3859L80.9791 25.5178ZM21.8244 99.7735C23.8531 99.7735 25.5 101.751 25.5 104.197C25.5 106.638 23.8531 108.62 21.8244 108.62C19.7924 108.62 18.1455 106.638 18.1455 104.197C18.1455 101.751 19.7924 99.7735 21.8244 99.7735ZM147.591 99.7735C149.623 99.7735 151.27 101.751 151.27 104.197C151.27 106.638 149.623 108.62 147.591 108.62C145.563 108.62 143.916 106.638 143.916 104.197C143.916 101.751 145.563 99.7735 147.591 99.7735Z" fill="#9003FF"/>
</g>
<defs>
<clipPath id="clip0_0_1">
<rect width="170" height="148" fill="white"/>
</clipPath>
</defs>
</svg>
