<svg width="170" height="148" viewBox="0 0 170 148" fill="none" xmlns="http://www.w3.org/2000/svg">
<g clip-path="url(#clip0_0_1)">
<path fill-rule="evenodd" clip-rule="evenodd" d="M4.48575 58.9183L7.6633 103.112C8.09162 107.68 8.9715 110.616 10.2133 112.233C11.1961 113.511 12.5375 113.876 14.1479 113.544C14.2774 113.518 14.4035 113.507 14.5297 113.507L29.8961 113.5L30.1252 113.511C32.2801 113.552 33.771 112.833 34.7073 111.48C35.7997 109.904 36.3309 107.419 36.4139 104.211L36.4073 55.4905C36.3508 55.2744 36.321 55.0471 36.321 54.8123C36.321 54.749 36.321 54.6857 36.3276 54.6223C36.0885 53.0686 35.4842 52.0216 34.5878 51.3696C33.3493 50.4716 31.4899 50.1251 29.2155 50.1549H29.1889V50.1661L9.68537 50.1624C7.67658 50.2704 6.13595 50.8107 5.27267 51.9732C4.34962 53.2176 4.01759 55.3675 4.46583 58.6985L4.48575 58.9183ZM128.802 57.0405C128.802 56.258 128.845 55.5165 128.931 54.8161L121.703 49.3985C120.664 48.6198 119.525 47.7256 118.383 46.8276C116.434 45.2963 114.461 43.7463 112.436 42.39C113.146 41.0114 113.771 39.5658 114.299 38.068C116.546 39.5472 118.698 41.2425 120.82 42.9117C121.879 43.7426 122.931 44.5697 124.07 45.423L130.495 50.222C130.821 49.7153 131.196 49.2532 131.614 48.8285C133.45 46.973 136.08 46.0676 139.453 46.0638V46.0527L157.748 46.0601C161.573 46.0452 164.691 46.8276 166.846 48.6906C169.243 50.766 170.372 53.9218 169.891 58.4489L165.847 105.355C165.551 109.539 164.565 112.825 162.808 115.091C160.939 117.501 158.336 118.69 154.926 118.53L138.474 118.533C136.17 118.668 134.217 117.967 132.58 116.503C131.385 115.43 130.396 113.962 129.602 112.132H123.911C124.678 114.647 124.638 117.036 124.027 119.152C123.396 121.335 122.171 123.191 120.607 124.584C119.077 125.948 117.207 126.88 115.255 127.237C113.346 127.587 111.35 127.397 109.494 126.533C107.333 129.063 105.062 130.661 102.691 131.392C100.31 132.126 97.8996 131.977 95.4591 131.019C93.1449 133.895 90.5849 135.703 87.7627 136.388C84.8906 137.089 81.8392 136.604 78.6019 134.894C77.5958 135.781 76.54 136.481 75.4376 136.992C73.8771 137.715 72.2368 138.05 70.5269 137.994C66.4263 137.86 63.6638 136.496 61.4657 134.29C59.3706 132.189 57.9562 129.488 56.369 126.38L47.3013 108.63H40.2688C39.8604 110.925 39.1466 112.866 38.0807 114.405C36.2878 117.002 33.6547 118.377 30.0157 118.295L14.6725 118.299C11.6344 118.854 9.02795 118.016 6.98927 115.363C5.18302 113.015 3.94786 109.211 3.41993 103.615L3.40001 103.41L0.229104 59.3356C-0.401756 54.5776 0.29551 51.2131 1.99883 48.9142C3.71876 46.5966 6.30861 45.5497 9.50275 45.382L9.76506 45.3634H29.1889V45.3745C32.2536 45.3373 34.8899 45.9036 36.8921 47.3567C38.5024 48.5267 39.6579 50.1735 40.2522 52.4128H53.4704C56.7907 49.8978 59.9019 47.9231 63.3417 46.7196C63.853 46.5407 64.3677 46.3805 64.8923 46.2389C65.5929 47.2338 66.3433 48.1802 67.1402 49.0744C67.5452 49.5308 67.9627 49.9732 68.3919 50.4008C67.0671 50.5722 65.8153 50.874 64.6101 51.2951C61.5056 52.3793 58.6103 54.2721 55.4427 56.6977C55.0774 57.0218 54.6159 57.2119 54.1179 57.2119H40.6839V103.831H48.5364C49.3665 103.831 50.087 104.36 50.4423 105.135L60.0812 123.999C61.4923 126.764 62.7374 129.152 64.3079 130.728C65.7755 132.2 67.6946 133.113 70.6431 133.214C71.7521 133.247 72.8113 133.031 73.8206 132.565C74.4382 132.278 75.0458 131.891 75.6402 131.407L69.3614 118.22C69.2296 117.944 69.1477 117.64 69.1204 117.328C69.0931 117.015 69.121 116.7 69.2024 116.4C69.2838 116.099 69.4172 115.82 69.5949 115.577C69.7726 115.335 69.9911 115.134 70.238 114.986C70.4848 114.838 70.7551 114.746 71.0335 114.716C71.312 114.685 71.5931 114.716 71.8608 114.808C72.1285 114.899 72.3775 115.049 72.5936 115.248C72.8096 115.448 72.9885 115.693 73.1201 115.97L79.9466 130.304C82.4867 131.753 84.791 132.204 86.8628 131.701C88.7554 131.243 90.5418 129.965 92.2185 127.904L82.3837 110.579C82.2337 110.314 82.1316 110.019 82.0833 109.71C82.0349 109.401 82.0413 109.084 82.1021 108.778C82.1628 108.472 82.2767 108.182 82.4373 107.925C82.5978 107.668 82.8019 107.449 83.0378 107.281C83.2734 107.112 83.5363 106.997 83.8116 106.942C84.0869 106.887 84.3692 106.894 84.6421 106.962C84.9151 107.03 85.1735 107.157 85.4024 107.337C85.6314 107.518 85.8264 107.747 85.9763 108.011L96.3424 126.276C98.1619 127.103 99.9084 127.289 101.572 126.779C103.159 126.287 104.749 125.147 106.337 123.299L96.9433 103.458C96.3922 102.288 96.7873 100.835 97.8299 100.217C98.3305 99.9178 98.9164 99.8543 99.4588 100.04C100.001 100.226 100.455 100.646 100.722 101.208L110.437 121.734C111.699 122.557 113.163 122.77 114.571 122.513C115.799 122.285 116.981 121.697 117.948 120.832C118.884 120.001 119.608 118.921 119.966 117.688C120.355 116.335 120.315 114.744 119.644 113.019C119.51 112.671 119.451 112.291 119.472 111.912C119.176 111.768 118.913 111.55 118.702 111.275C118.492 111 118.339 110.675 118.256 110.325L96.93 67.1601C94.5627 62.7113 92.4244 62.5958 90.3591 63.9782C88.8949 64.9581 87.3543 66.5379 85.8103 68.1177C84.8773 69.079 83.9376 70.0403 83.1607 70.7594L79.3755 74.258C76.7392 76.6128 73.7708 77.8722 70.9552 78.1367C69.0825 78.3081 67.2597 78.0399 65.6228 77.3506C63.9294 76.6389 62.4452 75.4839 61.3196 73.9115C60.1044 72.2237 59.3108 70.0775 59.1216 67.529C59.0685 66.795 59.3142 66.1169 59.7392 65.6362L70.0222 51.9061C71.1544 52.8786 72.3564 53.7616 73.6115 54.5366L63.4944 68.0506C63.6937 69.1908 64.0954 70.1483 64.6433 70.9121C65.2775 71.7989 66.1308 72.4584 67.1103 72.8683C68.1462 73.3079 69.3415 73.4719 70.6066 73.3564C72.6253 73.1701 74.7769 72.2423 76.716 70.5172L80.438 67.067C81.3777 66.1951 82.158 65.394 82.9382 64.5929C84.6548 62.8343 86.3714 61.0757 88.171 59.8722C92.3414 57.0814 96.4918 56.9883 100.596 64.7159L121.643 107.311H128.795L128.802 57.0405ZM87.5003 0C100.413 0 110.875 11.7479 110.875 26.2306C110.875 40.7208 100.406 52.4575 87.5003 52.4575C74.5843 52.4575 64.1253 40.7134 64.1253 26.2306C64.1253 11.7367 74.5909 0 87.5003 0ZM80.9792 23.7939C81.7894 24.3155 82.4568 24.7961 83.081 25.3401C83.5587 25.7555 84.0102 26.2074 84.4324 26.6927C85.5513 24.8558 87.6896 21.834 89.7947 19.3116C91.5511 17.2101 93.3109 15.4329 94.4996 14.9149L94.6025 14.8702H100.841L99.9947 15.9247C96.7342 19.9897 94.1609 23.3617 91.85 26.9237C89.539 30.4894 87.4738 34.2675 85.216 39.1522L84.6914 40.2849L84.2099 39.1298C83.0445 36.3317 81.9421 33.9657 80.5576 31.868C79.183 29.7815 77.5195 27.9408 75.2185 26.171L74.156 25.355L80.79 23.6709L80.9792 23.7939ZM21.8245 93.0331C23.8532 93.0331 25.5 94.8774 25.5 97.1577C25.5 99.4342 23.8532 101.282 21.8245 101.282C19.7924 101.282 18.1455 99.4342 18.1455 97.1577C18.1455 94.8774 19.7924 93.0331 21.8245 93.0331ZM147.591 93.0331C149.623 93.0331 151.27 94.8774 151.27 97.1577C151.27 99.4342 149.623 101.282 147.591 101.282C145.563 101.282 143.916 99.4342 143.916 97.1577C143.916 94.8774 145.563 93.0331 147.591 93.0331Z" fill="#9003FF"/>
</g>
<defs>
<clipPath id="clip0_0_1">
<rect width="170" height="148" fill="white"/>
</clipPath>
</defs>
</svg>
