<svg width="178" height="255" viewBox="0 0 178 255" fill="none" xmlns="http://www.w3.org/2000/svg">
<g clip-path="url(#clip0_0_1)">
<path fill-rule="evenodd" clip-rule="evenodd" d="M12.4857 52.9405L15.6632 92.6501C16.0916 96.7546 16.9714 99.3928 18.2132 100.846C19.1961 101.994 20.5375 102.322 22.1478 102.024C22.2773 102.001 22.4035 101.991 22.5297 101.991L37.8961 101.984L38.1252 101.994C40.28 102.031 41.7709 101.385 42.7072 100.17C43.7996 98.7534 44.3308 96.5203 44.4138 93.6377L44.4072 49.8604C44.3507 49.6663 44.3209 49.462 44.3209 49.2511C44.3209 49.1942 44.3209 49.1373 44.3275 49.0804C44.0884 47.6843 43.4841 46.7435 42.5877 46.1577C41.3492 45.3508 39.4898 45.0395 37.2154 45.0662H37.1888V45.0763L17.6853 45.0729C15.6765 45.17 14.1359 45.6555 13.2726 46.7C12.3496 47.8182 12.0175 49.75 12.4658 52.743L12.4857 52.9405ZM136.802 51.2532C136.802 50.5501 136.845 49.8839 136.931 49.2545L129.703 44.3866C128.663 43.6869 127.525 42.8834 126.382 42.0766C124.433 40.7006 122.461 39.3078 120.436 38.0892C121.146 36.8505 121.77 35.5515 122.298 34.2056C124.546 35.5347 126.698 37.058 128.819 38.5579C129.879 39.3045 130.931 40.0477 132.07 40.8144L138.495 45.1265C138.82 44.6712 139.195 44.256 139.614 43.8744C141.45 42.2071 144.08 41.3936 147.453 41.3902V41.3802L165.748 41.3869C169.573 41.3735 172.691 42.0765 174.846 43.7505C177.243 45.6153 178.372 48.451 177.89 52.5187L173.846 94.6655C173.551 98.4253 172.565 101.378 170.808 103.414C168.939 105.58 166.336 106.648 162.926 106.504L146.474 106.507C144.169 106.628 142.217 105.998 140.58 104.682C139.385 103.718 138.395 102.399 137.602 100.755H131.911C132.678 103.015 132.638 105.161 132.027 107.063C131.396 109.025 130.171 110.692 128.607 111.944C127.076 113.169 125.207 114.006 123.255 114.328C121.345 114.643 119.35 114.472 117.494 113.695C115.332 115.968 113.061 117.405 110.691 118.061C108.31 118.72 105.899 118.586 103.459 117.726C101.145 120.311 98.5847 121.934 95.7625 122.55C92.8904 123.18 89.839 122.744 86.6017 121.208C85.5957 122.005 84.5398 122.634 83.4375 123.093C81.8769 123.742 80.2367 124.043 78.5267 123.993C74.4261 123.873 71.6636 122.647 69.4656 120.665C67.3705 118.777 65.956 116.35 64.3689 113.558L55.3011 97.6084H48.2687C47.8603 99.6707 47.1464 101.415 46.0806 102.798C44.2877 105.131 41.6547 106.366 38.0156 106.293L22.6724 106.296C19.6343 106.795 17.0279 106.042 14.9892 103.658C13.183 101.549 11.9478 98.1306 11.4199 93.1021L11.4 92.9179L8.22907 53.3155C7.59821 49.0402 8.29547 46.017 9.99879 43.9514C11.7187 41.869 14.3086 40.9282 17.5027 40.7776L17.765 40.7608H37.1888V40.7709C40.2535 40.7374 42.8898 41.2463 44.892 42.552C46.5023 43.6032 47.6578 45.083 48.2521 47.0951H61.4703C64.7906 44.8352 67.9017 43.0608 71.3416 41.9795C71.8529 41.8188 72.3675 41.6748 72.8922 41.5476C73.5927 42.4415 74.3431 43.2918 75.14 44.0953C75.5451 44.5055 75.9625 44.9029 76.3918 45.2872C75.067 45.4412 73.8152 45.7124 72.6099 46.0907C69.5054 47.0649 66.6101 48.7657 63.4425 50.9452C63.0773 51.2364 62.6158 51.4072 62.1177 51.4072H48.6838V93.2963H56.5363C57.3664 93.2963 58.0869 93.7717 58.4422 94.468L68.081 111.418C69.4922 113.903 70.7373 116.049 72.3078 117.465C73.7754 118.787 75.6945 119.607 78.6429 119.698C79.7519 119.728 80.8111 119.534 81.8205 119.115C82.4381 118.858 83.0457 118.509 83.64 118.074L77.3613 106.226C77.2295 105.977 77.1476 105.705 77.1203 105.424C77.093 105.143 77.1208 104.86 77.2023 104.59C77.2837 104.32 77.417 104.069 77.5947 103.851C77.7724 103.633 77.991 103.453 78.2379 103.32C78.4846 103.187 78.7549 103.104 79.0334 103.077C79.3118 103.049 79.5929 103.077 79.8606 103.159C80.1283 103.241 80.3773 103.376 80.5934 103.555C80.8095 103.734 80.9884 103.955 81.1199 104.204L87.9465 117.083C90.4865 118.386 92.7908 118.791 94.8627 118.339C96.7552 117.927 98.5416 116.779 100.218 114.927L90.3836 99.3593C90.2335 99.1215 90.1314 98.8562 90.0831 98.5785C90.0348 98.3009 90.0412 98.0164 90.1019 97.7412C90.1626 97.4661 90.2765 97.2057 90.4371 96.975C90.5977 96.7442 90.8017 96.5476 91.0377 96.3964C91.2732 96.2445 91.5362 96.141 91.8115 96.0918C92.0868 96.0426 92.369 96.0486 92.642 96.1096C92.9149 96.1705 93.1733 96.2852 93.4022 96.447C93.6312 96.6089 93.8262 96.8147 93.9761 97.0526L104.342 113.464C106.162 114.207 107.908 114.375 109.572 113.916C111.159 113.474 112.749 112.45 114.336 110.789L104.943 92.9615C104.392 91.9102 104.787 90.6045 105.83 90.0488C106.33 89.7802 106.916 89.7232 107.459 89.8902C108.001 90.0572 108.455 90.4346 108.722 90.9393L118.437 109.383C119.699 110.123 121.163 110.314 122.571 110.083C123.799 109.878 124.981 109.349 125.947 108.573C126.884 107.826 127.608 106.855 127.966 105.747C128.355 104.532 128.315 103.102 127.644 101.552C127.509 101.239 127.45 100.898 127.471 100.558C127.175 100.428 126.912 100.232 126.702 99.985C126.492 99.738 126.339 99.4463 126.256 99.1317L104.93 60.3461C102.562 56.3487 100.424 56.2449 98.359 57.487C96.8947 58.3675 95.3541 59.787 93.8101 61.2065C92.8771 62.0703 91.9375 62.934 91.1605 63.5802L87.3754 66.7239C84.739 68.8398 81.7707 69.9714 78.955 70.2091C77.0824 70.3631 75.2595 70.122 73.6226 69.5026C71.9293 68.8632 70.4451 67.8253 69.3195 66.4125C68.1043 64.8959 67.3107 62.9675 67.1214 60.6776C67.0683 60.018 67.314 59.4087 67.739 58.9768L78.022 46.6398C79.1543 47.5136 80.3562 48.307 81.6113 49.0034L71.4943 61.1463C71.6935 62.1707 72.0953 63.0311 72.6431 63.7175C73.2773 64.5143 74.1306 65.1068 75.1101 65.4751C76.1461 65.8702 77.3414 66.0175 78.6064 65.9137C80.6252 65.7463 82.7767 64.9127 84.7158 63.3626L88.4379 60.2624C89.3775 59.479 90.1578 58.7592 90.9381 58.0394C92.6547 56.4592 94.3712 54.879 96.1709 53.7976C100.341 51.29 104.492 51.2063 108.595 58.1499L129.643 96.4232H136.795L136.802 51.2532ZM95.5002 0C108.413 0 118.875 10.556 118.875 23.5693C118.875 36.5893 108.406 47.1352 95.5002 47.1352C82.5841 47.1352 72.1252 36.5826 72.1252 23.5693C72.1252 10.5459 82.5908 0 95.5002 0ZM88.9791 21.3798C89.7892 21.8485 90.4566 22.2804 91.0808 22.7691C91.5585 23.1423 92.0101 23.5484 92.4322 23.9844C93.5511 22.3339 95.6894 19.6188 97.7945 17.3522C99.5509 15.464 101.311 13.867 102.499 13.4017L102.602 13.3615H108.841L107.994 14.309C104.734 17.9615 102.161 20.9914 99.8498 24.192C97.5388 27.396 95.4736 30.7907 93.2158 35.1799L92.6912 36.1976L92.2097 35.1598C91.0443 32.6455 89.942 30.5196 88.5574 28.6347C87.1828 26.7599 85.5193 25.106 83.2183 23.5157L82.1558 22.7825L88.7898 21.2693L88.9791 21.3798ZM29.8244 83.594C31.8531 83.594 33.5 85.2512 33.5 87.3001C33.5 89.3457 31.8531 91.0063 29.8244 91.0063C27.7923 91.0063 26.1455 89.3457 26.1455 87.3001C26.1455 85.2512 27.7923 83.594 29.8244 83.594ZM155.591 83.594C157.623 83.594 159.27 85.2512 159.27 87.3001C159.27 89.3457 157.623 91.0063 155.591 91.0063C153.562 91.0063 151.916 89.3457 151.916 87.3001C151.916 85.2512 153.562 83.594 155.591 83.594Z" fill="#9003FF"/>
</g>
<defs>
<clipPath id="clip0_0_1">
<rect width="170" height="124" fill="white" transform="translate(8)"/>
</clipPath>
</defs>
</svg>
