<svg width="170" height="170" viewBox="0 0 170 170" fill="none" xmlns="http://www.w3.org/2000/svg">
<g clip-path="url(#clip0_0_1)">
<path d="M85 170C131.944 170 170 131.944 170 85C170 38.0558 131.944 0 85 0C38.0558 0 0 38.0558 0 85C0 131.944 38.0558 170 85 170Z" fill="#9003FF"/>
<path d="M101.632 101.498C111.839 95.7086 118.699 84.7323 118.699 72.1831C118.699 53.5433 103.606 38.4508 84.9665 38.4508C66.3268 38.4508 51.2677 53.5433 51.2677 72.1496C51.2677 84.7323 58.1614 95.6752 68.3346 101.465C47.185 106.852 30.0177 122.146 22.0866 142.157C37.6476 159.258 60.0689 170 85 170C109.931 170 132.352 159.258 147.913 142.157C139.982 122.146 122.815 106.852 101.632 101.498Z" fill="white"/>
<path d="M134.394 61.0059H129.106C124.12 41.2953 106.25 26.6378 85 26.6378C63.75 26.6378 45.8799 41.2618 40.8937 61.0059H35.6063C33.7992 61.0059 32.3268 62.4783 32.3268 64.2854V80.3149C32.3268 82.122 33.7992 83.5945 35.6063 83.5945H42.2992C44.3406 83.5945 45.9134 81.7539 45.5453 79.7795C44.876 76.2992 44.6417 72.6516 44.9429 68.9035C46.5492 49.059 62.8799 33.1299 82.7913 32.059C105.949 30.7874 125.224 49.2933 125.224 72.1831C125.224 74.7933 124.957 77.3031 124.488 79.7795C124.087 81.7874 125.693 83.6279 127.701 83.6279H128.303C126.898 87.9783 123.317 96.0768 115.486 100.427C108.927 104.075 100.661 104.409 90.9232 101.364C90.4213 99.122 87.9449 96.4783 85.4016 95.2401C82.1221 93.6004 80.0807 94.9724 78.9095 97.3149C77.7382 99.6575 77.9055 102.1 81.1516 103.74C84.0295 105.179 88.3799 105.48 90.187 103.907C94.8386 105.346 99.189 106.083 103.238 106.083C108.258 106.083 112.776 104.978 116.758 102.736C125.961 97.6161 129.742 88.1122 131.081 83.5945H134.394C136.201 83.5945 137.673 82.122 137.673 80.3149V64.2854C137.673 62.4783 136.201 61.0059 134.394 61.0059Z" fill="black"/>
</g>
<defs>
<clipPath id="clip0_0_1">
<rect width="170" height="170" fill="white"/>
</clipPath>
</defs>
</svg>
