<svg width="100" height="100" viewBox="0 0 100 100" fill="none" xmlns="http://www.w3.org/2000/svg">
<g clip-path="url(#clip0_0_1)">
<path d="M50 100C77.6142 100 100 77.6142 100 50C100 22.3858 77.6142 0 50 0C22.3858 0 0 22.3858 0 50C0 77.6142 22.3858 100 50 100Z" fill="#9003FF"/>
<path d="M59.7835 59.7047C65.7874 56.2992 69.8228 49.8425 69.8228 42.4606C69.8228 31.4961 60.9449 22.6181 49.9803 22.6181C39.0157 22.6181 30.1575 31.4961 30.1575 42.4409C30.1575 49.8425 34.2126 56.2795 40.1968 59.685C27.7559 62.8543 17.6575 71.8504 12.9921 83.622C22.1457 93.6811 35.3346 100 50 100C64.6654 100 77.8543 93.6811 87.0079 83.622C82.3425 71.8504 72.2441 62.8543 59.7835 59.7047Z" fill="white"/>
<path d="M79.0551 35.8858H75.9449C73.0118 24.2913 62.5 15.6693 50 15.6693C37.5 15.6693 26.9882 24.2716 24.0551 35.8858H20.9449C19.8819 35.8858 19.0157 36.752 19.0157 37.815V47.2441C19.0157 48.3071 19.8819 49.1732 20.9449 49.1732H24.8819C26.0827 49.1732 27.0079 48.0905 26.7913 46.9291C26.3976 44.8819 26.2598 42.7362 26.437 40.5315C27.3819 28.8583 36.9882 19.4882 48.7008 18.8583C62.3228 18.1102 73.6614 28.9961 73.6614 42.4606C73.6614 43.9961 73.5039 45.4724 73.2283 46.9291C72.9921 48.1102 73.937 49.1929 75.1181 49.1929H75.4724C74.6457 51.752 72.5394 56.5157 67.9331 59.0748C64.0748 61.2205 59.2126 61.4173 53.4843 59.626C53.189 58.3071 51.7323 56.752 50.2362 56.0236C48.3071 55.059 47.1063 55.8661 46.4173 57.2441C45.7283 58.622 45.8268 60.059 47.7362 61.0236C49.4291 61.8701 51.9882 62.0472 53.0512 61.122C55.7874 61.9685 58.3465 62.4016 60.7283 62.4016C63.6811 62.4016 66.3386 61.752 68.6811 60.4331C74.0945 57.4212 76.3189 51.8307 77.1063 49.1732H79.0551C80.1181 49.1732 80.9842 48.3071 80.9842 47.2441V37.815C80.9842 36.752 80.1181 35.8858 79.0551 35.8858Z" fill="black"/>
</g>
<defs>
<clipPath id="clip0_0_1">
<rect width="100" height="100" fill="white"/>
</clipPath>
</defs>
</svg>
