<svg width="100" height="100" viewBox="0 0 100 100" fill="none" xmlns="http://www.w3.org/2000/svg">
<path d="M28 8C16.9773 8 8 16.9773 8 28V72C8 83.0227 16.9773 92 28 92H72C83.0227 92 92 83.0227 92 72V28C92 16.9773 83.0227 8 72 8H28ZM28 12H72C80.8613 12 88 19.1387 88 28V72C88 80.8613 80.8613 88 72 88H28C19.1387 88 12 80.8613 12 72V28C12 19.1387 19.1387 12 28 12ZM36.0977 22.0898C32.007 21.9131 28.9023 23.4674 26.9492 25.3359C25.9727 26.2702 25.2677 27.2699 24.7852 28.2031C24.3026 29.1364 23.9961 29.9057 23.9961 30.9062C23.9961 30.8171 23.9741 31.2849 23.9609 31.8281C23.9477 32.3714 23.9501 33.1036 24 33.9883C24.0999 35.7576 24.3998 38.1509 25.1953 40.9883C26.7863 46.6631 30.3689 54.1072 38.1406 61.8789C45.9124 69.6506 53.356 73.2327 59.0312 74.8242C61.8689 75.62 64.2618 75.9194 66.0312 76.0195C66.916 76.0696 67.6442 76.0717 68.1875 76.0586C68.7308 76.0454 69.2021 76.0234 69.1133 76.0234C70.1138 76.0234 70.8832 75.7169 71.8164 75.2344C72.7496 74.7519 73.7493 74.0468 74.6836 73.0703C76.5522 71.1173 78.1064 68.0125 77.9297 63.9219C77.8458 61.9709 76.7626 60.2432 75.1641 59.2188C73.9287 58.4272 72.0109 57.1984 69.5078 55.5977C66.6036 53.7421 62.889 53.6096 59.8594 55.2695L60.0312 55.1836L57.6758 56.1953L57.5039 56.3164C56.9314 56.7184 56.2223 56.7929 55.5781 56.5234C53.7736 55.7688 50.962 54.2862 48.3477 51.6719C45.7333 49.0576 44.2507 46.2459 43.4961 44.4414C43.2267 43.7972 43.3011 43.0881 43.7031 42.5156L43.8242 42.3438L44.8359 39.9883L44.75 40.1602C46.4095 37.1313 46.2805 33.4168 44.4219 30.5117C42.8212 28.0086 41.5924 26.0908 40.8008 24.8555C39.7763 23.2569 38.0486 22.1737 36.0977 22.0898ZM35.9258 26.0859C36.4868 26.1101 37.0661 26.4383 37.4336 27.0117C38.226 28.2484 39.4554 30.1671 41.0547 32.668C42.1161 34.3269 42.1907 36.5072 41.2422 38.2383L41.1953 38.3242L40.2305 40.5781L40.4297 40.2148C39.2477 41.8983 39.0101 44.0846 39.8047 45.9844C40.7061 48.1399 42.4298 51.4103 45.5195 54.5C48.6092 57.5897 51.8797 59.3135 54.0352 60.2148C55.935 61.0094 58.1212 60.7719 59.8047 59.5898L59.4414 59.7891L61.6953 58.8242L61.7812 58.7773C63.5116 57.8293 65.6918 57.9083 67.3516 58.9688V58.9648C69.8525 60.5641 71.7712 61.7935 73.0078 62.5859C73.5812 62.9534 73.9095 63.5327 73.9336 64.0938C74.0648 67.1311 73.0099 69.0327 71.793 70.3047C71.1845 70.9407 70.5247 71.4022 69.9805 71.6836C69.4363 71.965 68.9158 72.0234 69.1133 72.0234C68.7465 72.0234 68.5533 72.0475 68.0938 72.0586C67.6342 72.0698 67.0183 72.0704 66.2578 72.0273C64.7369 71.9413 62.6375 71.6816 60.1094 70.9727C55.0531 69.5547 48.275 66.357 40.9688 59.0508C33.6625 51.7445 30.4643 44.9659 29.0469 39.9102C28.3381 37.3823 28.0781 35.2825 27.9922 33.7617C27.9492 33.0013 27.9498 32.3853 27.9609 31.9258C27.9721 31.4663 27.9961 31.2734 27.9961 30.9062C27.9961 31.1038 28.0546 30.5833 28.3359 30.0391C28.6173 29.4949 29.0789 28.835 29.7148 28.2266C30.9868 27.0096 32.8884 25.9547 35.9258 26.0859Z" fill="#9003FF"/>
</svg>
