<svg width="170" height="120" viewBox="0 0 170 120" fill="none" xmlns="http://www.w3.org/2000/svg">
<g clip-path="url(#clip0_0_1)">
<path d="M101.159 0C110.47 0 119.365 1.61543 127.486 4.54491C135.911 7.58288 143.493 12.0434 149.843 17.5769C156.179 23.0983 161.298 29.7046 164.784 37.0705C168.146 44.1471 170 51.8987 170 60C170 68.1133 168.146 75.865 164.784 82.9415C161.298 90.2833 156.179 96.8897 149.829 102.423C143.493 107.945 135.911 112.405 127.458 115.443C119.338 118.373 110.442 119.988 101.145 119.988C91.8343 119.988 82.9386 118.373 74.8177 115.443C66.3924 112.405 58.811 107.945 52.4748 102.423L52.4609 102.411C46.1108 96.8776 41.0059 90.2713 37.5195 82.9415C36.4404 80.6631 35.5135 78.3243 34.7526 75.9253C36.1914 76.0458 37.6579 76.1061 39.1382 76.1061C41.9466 76.1061 44.6859 75.8891 47.356 75.4671C47.7987 76.6245 48.2829 77.7697 48.8086 78.8909C51.6724 84.9186 55.8781 90.3436 61.1076 94.9005C66.3371 99.4575 72.5765 103.122 79.48 105.618C86.1345 108.017 93.453 109.355 101.145 109.355C108.837 109.355 116.142 108.029 122.81 105.618C129.727 103.122 135.953 99.4575 141.182 94.9005C146.412 90.3436 150.618 84.9066 153.481 78.8909C156.235 73.0922 157.77 66.7149 157.77 60.0121C157.77 53.3092 156.248 46.9439 153.481 41.1332C150.618 35.1055 146.412 29.6805 141.182 25.1236C135.953 20.5666 129.714 16.9017 122.81 14.4063C116.156 12.0072 108.837 10.6691 101.145 10.6691C93.453 10.6691 86.1483 11.9952 79.48 14.4063C78.8851 14.6233 78.2902 14.8523 77.7092 15.0814C75.4403 11.9711 72.701 9.15009 69.5606 6.70283C71.276 5.93128 73.033 5.22001 74.8177 4.56902C82.9663 1.61543 91.8482 0 101.159 0ZM93.2593 31.4768C93.2593 30.006 93.951 28.6799 95.0439 27.7155C96.1507 26.7511 97.6725 26.1603 99.3604 26.1603C101.048 26.1603 102.57 26.7511 103.677 27.7155C104.784 28.6799 105.461 30.006 105.461 31.4768V59.4696L129.465 71.8746C130.903 72.6221 131.872 73.8156 132.259 75.1296C132.646 76.4436 132.467 77.8903 131.609 79.1441V79.1561C130.751 80.4099 129.382 81.2538 127.874 81.5913C126.366 81.9289 124.705 81.7722 123.267 81.0247H123.253L96.3997 67.1489C95.4728 66.7028 94.7119 66.0518 94.1585 65.2803C93.5913 64.4726 93.2593 63.5202 93.2593 62.5075V31.4768Z" fill="black"/>
<path fill-rule="evenodd" clip-rule="evenodd" d="M37.3258 3.18265C57.9395 3.18265 74.6517 17.7456 74.6517 35.7083C74.6517 53.6709 57.9395 68.2339 37.3258 68.2339C16.7122 68.2339 0 53.6709 0 35.7083C0 17.7456 16.7122 3.18265 37.3258 3.18265ZM37.3258 16.5401L57.3584 38.1194H44.9211V49.5961H29.7306V38.1194H17.2933L37.3258 16.5401Z" fill="#9003FF"/>
</g>
<defs>
<clipPath id="clip0_0_1">
<rect width="170" height="120" fill="white"/>
</clipPath>
</defs>
</svg>
