<svg width="424" height="268" viewBox="0 0 424 268" fill="none" xmlns="http://www.w3.org/2000/svg">
<path d="M354.938 0C364.248 0 373.144 1.76351 381.265 4.96152C389.69 8.27798 397.271 13.1474 403.622 19.1881C409.958 25.2156 415.077 32.4276 418.563 40.4687C421.925 48.1939 423.779 56.6561 423.779 65.5C423.779 74.3571 421.925 82.8193 418.563 90.5445C415.077 98.5593 409.958 105.771 403.608 111.812C397.272 117.839 389.69 122.709 381.237 126.025C373.116 129.223 364.221 130.987 354.924 130.987C345.613 130.987 336.717 129.223 328.596 126.025C320.171 122.709 312.59 117.839 306.253 111.812L306.24 111.799C299.889 105.758 294.785 98.5461 291.298 90.5445C290.219 88.0572 289.292 85.504 288.531 82.8851C289.97 83.0167 291.437 83.0825 292.917 83.0825C295.725 83.0825 298.465 82.8456 301.135 82.385C301.577 83.6484 302.062 84.8986 302.587 86.1226C305.451 92.7028 309.657 98.6251 314.886 103.6C320.116 108.574 326.355 112.575 333.259 115.299C339.913 117.918 347.232 119.379 354.924 119.379C362.616 119.379 369.92 117.932 376.589 115.299C383.506 112.575 389.732 108.574 394.961 103.6C400.191 98.6251 404.396 92.6897 407.26 86.1226C410.013 79.7924 411.549 72.8304 411.549 65.5132C411.549 58.1959 410.027 51.2471 407.26 44.9038C404.396 38.3235 400.191 32.4012 394.961 27.4266C389.732 22.4519 383.492 18.4511 376.589 15.7268C369.934 13.1079 362.616 11.6471 354.924 11.6471C347.232 11.6471 339.927 13.0947 333.259 15.7268C332.664 15.9637 332.069 16.2138 331.488 16.4638C329.219 13.0684 326.48 9.98885 323.339 7.31726C325.055 6.47499 326.812 5.69851 328.596 4.98784C336.745 1.76351 345.627 0 354.938 0ZM347.038 34.3622C347.038 32.7566 347.73 31.3089 348.823 30.2561C349.929 29.2032 351.451 28.5584 353.139 28.5584C354.827 28.5584 356.349 29.2032 357.455 30.2561C358.562 31.3089 359.24 32.7566 359.24 34.3622V64.9209L383.243 78.4631C384.682 79.2791 385.65 80.582 386.038 82.0165C386.425 83.451 386.245 85.0303 385.388 86.3989V86.4121C384.53 87.7808 383.16 88.702 381.652 89.0705C380.144 89.439 378.484 89.2679 377.045 88.452H377.031L350.178 73.3042C349.251 72.8173 348.491 72.1066 347.937 71.2643C347.37 70.3826 347.038 69.3429 347.038 68.2374V34.3622Z" fill="black"/>
<path fill-rule="evenodd" clip-rule="evenodd" d="M291.326 3.47437C311.939 3.47437 328.652 19.3723 328.652 38.9815C328.652 58.5907 311.939 74.4886 291.326 74.4886C270.712 74.4886 254 58.5907 254 38.9815C254 19.3723 270.712 3.47437 291.326 3.47437ZM291.326 18.0562L311.358 41.6136H298.921V54.1424H283.731V41.6136H271.293L291.326 18.0562Z" fill="#9003FF"/>
</svg>
