<svg width="170" height="131" viewBox="0 0 170 131" fill="none" xmlns="http://www.w3.org/2000/svg">
<g clip-path="url(#clip0_0_1)">
<path d="M100.938 0C110.248 0 119.144 1.76351 127.265 4.96152C135.69 8.27798 143.271 13.1474 149.622 19.1881C155.958 25.2156 161.077 32.4276 164.563 40.4687C167.925 48.1939 169.779 56.6561 169.779 65.5C169.779 74.3571 167.925 82.8193 164.563 90.5445C161.077 98.5593 155.958 105.771 149.608 111.812C143.271 117.839 135.69 122.709 127.237 126.025C119.116 129.223 110.221 130.987 100.924 130.987C91.613 130.987 82.7173 129.223 74.5964 126.025C66.1711 122.709 58.5897 117.839 52.2534 111.812L52.2396 111.799C45.8895 105.758 40.7845 98.5461 37.2982 90.5445C36.2191 88.0572 35.2921 85.504 34.5312 82.8851C35.97 83.0167 37.4365 83.0825 38.9168 83.0825C41.7253 83.0825 44.4645 82.8456 47.1346 82.385C47.5773 83.6484 48.0615 84.8986 48.5872 86.1226C51.451 92.7028 55.6567 98.6251 60.8862 103.6C66.1157 108.574 72.3551 112.575 79.2586 115.299C85.9131 117.918 93.2316 119.379 100.924 119.379C108.616 119.379 115.92 117.932 122.589 115.299C129.506 112.575 135.732 108.574 140.961 103.6C146.191 98.6251 150.396 92.6897 153.26 86.1226C156.013 79.7924 157.549 72.8304 157.549 65.5132C157.549 58.1959 156.027 51.2471 153.26 44.9038C150.396 38.3235 146.191 32.4012 140.961 27.4266C135.732 22.4519 129.492 18.4511 122.589 15.7268C115.934 13.1079 108.616 11.6471 100.924 11.6471C93.2316 11.6471 85.9269 13.0947 79.2586 15.7268C78.6637 15.9637 78.0688 16.2138 77.4878 16.4638C75.2189 13.0684 72.4796 9.98885 69.3392 7.31726C71.0547 6.47499 72.8117 5.69851 74.5964 4.98784C82.745 1.76351 91.6268 0 100.938 0ZM93.0379 34.3622C93.0379 32.7566 93.7296 31.3089 94.8226 30.2561C95.9294 29.2032 97.4512 28.5584 99.139 28.5584C100.827 28.5584 102.349 29.2032 103.455 30.2561C104.562 31.3089 105.24 32.7566 105.24 34.3622V64.9209L129.243 78.4631C130.682 79.2791 131.65 80.582 132.038 82.0165C132.425 83.451 132.245 85.0303 131.388 86.3989V86.4121C130.53 87.7808 129.16 88.702 127.652 89.0705C126.144 89.439 124.484 89.2679 123.045 88.452H123.031L96.1784 73.3042C95.2515 72.8173 94.4906 72.1066 93.9372 71.2643C93.3699 70.3826 93.0379 69.3429 93.0379 68.2374V34.3622Z" fill="black"/>
<path fill-rule="evenodd" clip-rule="evenodd" d="M37.3258 3.4744C57.9394 3.4744 74.6517 19.3723 74.6517 38.9815C74.6517 58.5907 57.9394 74.4887 37.3258 74.4887C16.7122 74.4887 0 58.5907 0 38.9815C0 19.3723 16.7122 3.4744 37.3258 3.4744ZM37.3258 18.0563L57.3584 41.6136H44.921V54.1425H29.7306V41.6136H17.2933L37.3258 18.0563Z" fill="#9003FF"/>
</g>
<defs>
<clipPath id="clip0_0_1">
<rect width="170" height="131" fill="white"/>
</clipPath>
</defs>
</svg>
